<svg width="86" height="162" viewBox="0 0 86 162" fill="none" xmlns="http://www.w3.org/2000/svg">
<g clip-path="url(#clip0_9_2)">
<path d="M8.52021 161.547C8.52021 161.474 8.64 161.279 8.78718 161.11C9.07646 160.773 17.5236 141.206 19.4957 136.304L20.712 133.279L20.5942 131.617C20.4259 129.263 19.7741 125.853 19.0809 123.694C18.7533 122.678 17.7746 120.465 16.9042 118.777C16.0338 117.09 14.6493 114.389 13.8254 112.782C10.9198 107.095 9.10514 101.691 8.09139 95.7006C7.76005 93.7445 7.7626 86.9869 8.09584 85.4532C8.57755 83.229 9.11725 81.8794 9.85957 81.0468C10.4904 80.3374 10.7159 80.218 11.5615 80.1411C12.4051 80.0611 12.653 80.1303 13.4163 80.6441C16.0925 82.4472 19.0471 88.6408 21.0606 96.6679C21.9991 100.403 22.7128 104.257 23.0167 107.218C23.2499 109.492 23.32 123.691 23.1072 125.762L22.9976 126.836L23.3111 126.153C24.4599 123.649 28.5226 109.655 30.0799 102.843C30.6999 100.128 30.6999 100.121 30.3641 99.0356C29.6409 96.7028 26.606 91.7141 23.7055 88.0895C20.972 84.672 19.4816 82.3869 17.9237 79.2151C15.3553 73.9875 14.2918 68.9213 14.9857 65.2281C15.3941 63.058 16.6373 61.5426 18.0104 61.5426C18.8062 61.5426 20.1195 62.3828 21.2963 63.6473C24.4778 67.0617 28.3117 75.9278 29.8581 83.4449C30.3048 85.6189 31.0057 91.5642 31.2058 94.9004L31.3434 97.1671L31.8697 94.4329C33.0389 88.3575 33.9425 82.2363 34.6491 75.5944C35.3315 69.1823 35.3315 69.1671 34.5854 67.2033C33.6315 64.6902 32.9466 63.46 30.84 60.461C27.0807 55.1108 25.3259 51.9506 24.3013 48.6836C22.6656 43.468 22.9052 38.5009 24.8518 37.3202C26.0478 36.5917 27.0724 36.9061 28.5143 38.4437C31.5581 41.6847 34.0291 48.8023 35.1588 57.5655C35.3723 59.227 35.5571 60.9945 35.5686 61.5007L35.5896 62.4216L35.7495 61.5432C35.9107 60.6573 36.4268 51.4221 36.6371 45.6344L36.7512 42.509L36.0012 41.6002C35.5896 41.0972 34.458 40.0816 33.4894 39.3373C30.5552 37.0814 26.8564 33.0059 24.8811 29.845C23.4882 27.617 22.9556 25.941 22.8574 23.4748C22.7294 20.2567 23.3226 18.7915 24.7543 18.7915C25.77 18.7915 26.9672 19.6273 28.9113 21.6908C32.7204 25.7288 34.5726 28.9088 36.207 34.2126L36.899 36.4558L36.9086 34.8947C36.9124 34.0361 36.8244 32.1028 36.7104 30.5995C36.5052 27.8844 36.5014 27.8653 35.8496 27.1864C34.4529 25.7295 31.9003 21.2037 30.7846 18.2085C29.7995 15.562 29.407 13.2763 29.5281 10.887C29.7568 6.31928 31.5307 2.98242 33.7252 2.98242C34.6058 2.98242 35.2793 3.35459 36.2472 4.37839C37.2303 5.42251 37.4954 5.85502 38.1409 7.48153C39.0858 9.86255 39.2954 11.3277 39.4063 16.3521C39.5255 21.7175 39.268 24.1989 38.2842 27.2023C37.7312 28.8891 37.7152 29.039 37.8962 30.7576C38.0007 31.7465 38.0873 33.2047 38.0899 34.0024C38.0924 34.8001 38.137 35.4066 38.1912 35.352C38.2454 35.2986 38.5901 34.1631 38.9584 32.8319C40.6431 26.7272 42.6814 22.8073 45.6641 19.9417C49.3763 16.3756 52.1614 17.0196 51.4178 21.2729C50.4499 26.8111 45.0645 35.2669 39.2177 40.4297L38.2842 41.2541L38.0943 46.2746C37.9905 49.036 37.9032 51.908 37.9013 52.6606L37.8987 54.0261L38.9877 50.8194C41.0075 44.8716 43.1918 41.04 46.407 37.8149C49.2871 34.9265 51.5828 34.1021 52.9521 35.4676C53.3708 35.8817 53.467 36.1846 53.5282 37.2853C53.625 39.0026 53.2057 40.6094 51.9964 43.1454C50.2377 46.8347 47.9777 49.8833 42.9892 55.295C39.8727 58.6776 37.5425 61.5655 37.4247 62.1987C37.382 62.4292 37.1577 65.244 36.9283 68.4539C36.1955 78.6588 34.9467 88.247 33.19 97.1563C32.6624 99.8333 32.2508 102.045 32.2762 102.072C32.3017 102.096 33.1536 100.036 34.1687 97.4935C35.2398 94.8159 37.1112 90.6896 38.6238 87.6792L41.2325 82.4866L40.7508 81.4316C40.0428 79.8864 39.8237 78.0916 39.837 73.938C39.8549 67.9102 40.5379 64.3123 42.3552 60.6649C44.7593 55.8406 48.4594 53.5396 49.5674 56.1861C50.513 58.4407 49.0469 66.8051 46.5963 73.1301C46.2241 74.0885 45.947 74.9021 45.9795 74.9326C46.012 74.9669 46.3439 74.5414 46.7173 73.9888C47.8541 72.3058 49.628 69.9349 51.1617 68.0442L52.617 66.25L52.4825 63.8493C52.3315 61.1685 52.7247 56.4814 53.3937 52.9915C54.3316 48.098 56.8217 43.2083 59.1647 41.6624C60.7264 40.631 61.6873 40.6043 62.327 41.5786C63.4484 43.2851 61.5089 51.8299 58.6428 57.8088C58.0063 59.14 57.2123 60.6776 56.8778 61.2257C56.2795 62.2114 56.2993 62.1999 58.0598 60.4705C59.2316 59.3197 60.1421 58.2076 60.699 57.2486C63.2038 52.9343 68.3292 47.6102 72.4295 45.0647C75.897 42.9085 79.6093 42.5751 80.9696 44.2937C81.5807 45.0647 81.4361 46.1387 80.5166 47.6496C77.908 51.9258 71.719 55.9943 63.6383 58.7405L61.0093 59.6347L58.5899 62.1047C56.3853 64.3517 54.9363 65.9134 53.8665 67.1938C53.6467 67.458 54.0405 67.2281 54.7407 66.6838C58.098 64.0722 61.4859 62.2653 65.4454 60.9735C68.2458 60.0596 70.2198 59.7268 71.4578 59.9561C73.9071 60.4127 74.0097 61.7897 71.7624 64.083C68.9499 66.9556 64.0136 70.1585 59.6171 71.9641C57.8317 72.6964 52.1945 74.3458 49.5247 74.9135C48.6493 75.1009 47.849 75.3079 47.747 75.3772C47.1895 75.7455 40.4443 86.6491 40.4443 87.1813C40.4443 87.2276 41.3038 86.4147 42.3539 85.3789C48.0337 79.7721 54.0392 76.3241 59.4482 75.5613C62.1002 75.1885 64.0404 76.1329 64.2806 77.9119C64.4424 79.1205 63.6606 80.5355 61.9249 82.1652C59.3029 84.6282 56.2273 86.0622 47.5934 88.8427C43.9182 90.024 42.0398 90.7493 40.062 91.7426L37.4266 93.0694L36.1803 95.9001C34.528 99.6504 30.6291 109.453 30.0072 111.416C29.5759 112.778 28.3538 116.824 27.8982 118.397C27.8121 118.692 27.7733 118.934 27.8102 118.934C27.8472 118.934 28.3786 117.991 28.9903 116.84C30.4061 114.171 33.7864 109.036 35.7056 106.635C41.5536 99.3208 50.5296 93.7299 56.5044 93.6835C58.214 93.6721 59.0563 94.0214 59.6457 94.9836C60.1606 95.8238 60.1249 96.7594 59.5298 98.0366C57.4908 102.4 52.0059 107.133 38.8876 115.851C31.8047 120.556 29.5185 122.282 26.994 124.829L25.1946 126.642L23.9961 129.864C22.4152 134.109 20.3654 138.969 17.5344 145.19C12.537 156.162 10.6796 159.859 9.57729 161.033C9.01721 161.631 8.52403 161.872 8.52403 161.551H8.52021V161.547ZM21.8131 114.243C21.6895 108.863 21.578 107.041 21.2549 105.166C20.6349 101.564 19.1522 95.5272 18.0919 92.2831C16.2569 86.6726 13.3558 81.84 11.8221 81.84C11.32 81.84 11.1862 81.9626 10.8497 82.7216C9.57092 85.6024 9.41736 92.0265 10.4967 97.599C11.3964 102.247 13.2908 107.475 16.1912 113.315C17.3509 115.651 18.3385 117.561 18.3857 117.561C18.4328 117.561 18.436 117.407 18.3927 117.22C18.3487 117.032 17.6931 113.673 16.9361 109.757C15.6866 103.287 15.1539 100.717 14.864 99.7507C14.8073 99.5627 14.843 99.4097 14.9436 99.4097C15.7153 99.4097 18.385 109.262 20.6566 120.491C21.1014 122.693 21.5244 124.714 21.5971 124.982C21.8621 125.968 21.9654 120.84 21.8144 114.244H21.8131V114.243ZM43.2823 111.13C53.1108 104.418 58.0674 99.7387 58.7473 96.5364C58.8575 96.015 58.7906 95.8156 58.3586 95.3856C57.8635 94.8947 57.7616 94.8718 56.4184 94.9715C54.6674 95.1055 52.0544 95.961 49.5037 97.2344C43.2326 100.372 37.7853 105.534 32.786 113.074C30.8948 115.928 28.8348 119.334 28.938 119.432C28.9814 119.478 29.4943 118.926 30.0792 118.21C32.5815 115.134 38.2065 110.048 42.5973 106.895C46.5294 104.073 48.5091 103.286 45.2932 105.826C40.6966 109.454 33.297 116.269 31.0051 118.981C30.2901 119.828 30.64 119.628 34.9887 116.725C37.6114 114.972 41.3433 112.453 43.2823 111.13ZM29.5561 91.7471C28.8323 83.6774 27.5261 78.3622 24.6798 71.8879C22.5114 66.9563 20.4597 64.0106 18.4857 62.99C17.911 62.6953 17.8581 62.7029 17.4299 63.1012C16.8004 63.6918 16.55 64.8883 16.55 67.3049C16.55 73.1232 18.9623 78.975 24.3178 86.1467C25.4845 87.7072 26.5919 89.2041 26.778 89.4645L27.117 89.9408L26.9099 89.3572C26.7952 89.0352 25.7375 86.1778 24.5587 83.0137C19.7091 69.9819 20.0156 70.9098 20.5629 70.9098C20.7248 70.9098 20.8573 71.0025 20.8573 71.1169C20.8573 71.2318 21.4639 72.7053 22.2062 74.3883C23.7743 77.9481 26.9864 85.9441 28.5118 90.0863C29.0948 91.6709 29.5931 92.9671 29.6179 92.9671C29.644 92.9665 29.6166 92.4171 29.5561 91.7471ZM45.436 88.0952C49.0398 86.926 55.3021 84.6821 56.5879 84.0991C59.8343 82.6225 62.2282 80.6822 62.9521 78.9408C63.5752 77.4413 62.4958 76.6359 60.1243 76.8316C56.326 77.1421 50.7704 79.8337 46.0241 83.6653C44.4101 84.9654 40.2582 88.8395 40.457 88.858C40.5182 88.8618 41.1796 88.3785 41.9251 87.7802C45.434 84.9768 51.9428 81.6362 53.4122 81.8902C53.7881 81.9543 53.7168 82.0274 52.9534 82.3735C50.1944 83.6158 43.829 87.5084 42.0092 89.0618L41.3242 89.6487L42.6954 89.0968C43.4479 88.7894 44.6828 88.3416 45.436 88.0952ZM41.8129 79.217C41.8129 77.8363 44.7051 66.2316 45.348 65.0344C45.6067 64.5511 46.2171 64.5238 46.0292 65.0039C45.6265 66.0271 42.7859 78.6105 42.7948 79.3244C42.8018 79.7575 45.4653 73 46.3057 70.4227C47.2991 67.3742 47.7967 65.4021 48.2803 62.5835C48.6824 60.2368 48.8239 57.4639 48.5804 56.6967C48.0414 55.0016 44.6382 58.5411 43.0631 62.4298C41.3115 66.7606 40.6373 73.1962 41.3516 78.768C41.4765 79.727 41.8129 80.0566 41.8129 79.217ZM55.1294 72.0638C60.7302 70.323 63.1228 69.2064 67.2722 66.4031C70.005 64.5587 71.5285 63.2282 72.1307 62.1536L72.5831 61.3489L72.0676 61.1145C71.3062 60.7659 68.9193 61.1685 66.0462 62.1269C62.2563 63.3889 58.9907 65.0611 56.2069 67.1658C54.9484 68.1172 50.6252 71.8682 50.6252 72.0105C50.6252 72.0562 51.2649 71.7342 52.0454 71.2966C54.8306 69.7355 62.0651 66.2227 62.499 66.2227C62.5392 66.2227 62.5717 66.3065 62.5717 66.4101C62.5717 66.6406 61.3304 67.3691 55.8156 70.3833C53.446 71.6757 51.2426 72.8996 50.9189 73.0984L50.3321 73.4629L50.9189 73.3289C51.2426 73.2534 53.1376 72.6856 55.1294 72.0638ZM55.7207 56.8536C57.5003 51.1167 57.7074 50.6098 58.2688 50.6098C58.6836 50.6098 58.7658 50.8061 58.4778 51.1046C58.3809 51.2081 57.9852 52.4967 57.5991 53.9696C57.2123 55.4462 56.6344 57.4595 56.3139 58.4528C55.9953 59.4423 55.7723 60.2946 55.8207 60.3403C55.9813 60.501 58.2318 55.6069 58.9499 53.5364C59.7866 51.1281 61.3496 45.1485 61.4012 44.1667C61.484 42.591 61.4133 42.2143 61.0278 42.2143C60.511 42.2143 58.8231 43.7761 58.0636 44.9529C56.3732 47.5797 55.0905 51.652 54.3769 56.658C53.9117 59.918 53.6607 63.2701 53.9372 62.5143C54.0353 62.2463 54.8376 59.6995 55.7207 56.8536ZM31.2695 56.3519C28.5914 50.0471 28.6813 50.23 27.6885 48.9306C26.8188 47.7919 26.785 47.6794 27.3164 47.6794C28.29 47.6794 30.8235 52.1976 33.406 58.5373L34.5892 61.441L34.4732 60.0755C34.1687 56.4935 32.7911 50.157 31.5148 46.4683C29.8371 41.6243 27.3578 37.9388 25.9204 38.1503C25.6891 38.1846 25.3182 38.457 25.0958 38.7555C24.5421 39.4961 24.4217 42.415 24.8448 44.85C25.5572 48.9459 27.0093 52.1023 30.7164 57.6138C32.1877 59.8037 33.3926 61.6868 33.3926 61.7941C33.3926 61.9046 33.4359 61.951 33.4888 61.9008C33.541 61.8474 32.5426 59.3508 31.2695 56.3519ZM68.0553 55.6494C73.3713 53.4132 78.0144 49.9233 79.824 46.8017C80.1349 46.2644 80.3904 45.6319 80.3911 45.3981C80.3962 44.4239 78.7905 44.0898 76.7388 44.6347C73.9919 45.3632 71.3737 47.0964 68.1534 50.3145C65.9787 52.4891 62.9642 55.8717 62.9642 56.1366C62.9642 56.202 63.9958 55.5034 65.2561 54.5837C69.3952 51.5727 71.1067 51.1167 67.5111 53.9816C66.3559 54.9019 64.9713 56.0559 64.4322 56.543L63.4535 57.4334L64.8241 56.9304C65.5785 56.6586 67.0326 56.0794 68.0553 55.6494ZM42.7999 53.3408C46.6275 49.2107 49.9083 44.7999 51.1177 42.1686C51.6931 40.9155 52.3882 38.3186 52.3882 37.4212C52.3882 36.5466 51.8116 35.8753 51.1935 36.029C49.7796 36.3821 46.6957 39.2077 44.6892 41.9851C42.5992 44.8805 40.5889 49.2145 39.0941 54.0464C38.7589 55.1318 38.4849 56.0984 38.4868 56.1937C38.4894 56.2902 39.0934 55.2233 39.83 53.8273C42.2074 49.3288 44.9982 45.0139 46.7836 43.0806C47.9146 41.8542 47.9343 42.2143 46.8295 43.9177C44.4993 47.5067 38.8762 57.812 39.9804 56.4662C40.2882 56.0902 41.5574 54.6834 42.7999 53.3408ZM34.9664 37.935C33.9221 35.8639 32.44 33.3711 30.805 30.9361C29.2006 28.5424 29.1126 28.355 29.6084 28.355C30.2137 28.355 33.102 32.374 35.0123 35.8715C35.5405 36.8388 35.9324 37.498 35.884 37.3367C35.8349 37.176 35.5514 36.2094 35.2519 35.1932C34.1598 31.4804 32.5082 27.9981 30.6999 25.5974C28.5526 22.7483 25.0958 19.5765 24.6358 20.0364C24.5511 20.1202 24.481 21.2138 24.481 22.4675C24.481 24.968 24.6829 25.8196 25.8649 28.2851C26.9367 30.5252 28.7023 32.715 32.2501 36.2119C34.075 38.0112 35.6081 39.4802 35.6571 39.4802C35.7062 39.4808 35.3952 38.7867 34.9664 37.935ZM43.864 32.9411C45.0791 31.3305 46.3803 29.5319 46.7568 28.9412C49.2412 25.0372 51.0393 19.2806 49.9102 18.8506C49.7299 18.7814 49.2062 18.9275 48.7308 19.1771C46.7352 20.232 43.6448 24.1163 42.0385 27.5878C41.3803 29.0104 39.4624 34.2031 39.4624 34.5638C39.4624 34.633 40.1493 33.4587 40.9891 31.9599C42.2284 29.7465 43.7003 27.3566 44.593 26.1143C44.6688 26.0108 44.7797 25.9765 44.8402 26.0375C44.9007 26.0953 43.9698 28.2007 42.7713 30.7163C41.5727 33.2282 40.2499 36.0322 39.8338 36.9442L39.0762 38.6012L40.3659 37.2357C41.0751 36.4857 42.6496 34.5524 43.864 32.9411ZM35.6514 22.9661C35.3672 21.6165 34.8683 19.7182 34.5427 18.7471C34.0973 17.4242 34.0062 16.93 34.1744 16.7643C34.7453 16.2041 35.8617 19.0043 36.8091 23.3758C37.0659 24.5577 37.2845 25.436 37.2947 25.3287C37.3074 25.2214 37.4502 24.2128 37.6152 23.0849C37.9675 20.6721 38.0147 14.4061 37.7012 11.8288C37.4329 9.62375 36.8397 7.44533 36.1783 6.23291C35.545 5.07447 34.4694 4.15039 33.7532 4.15039C32.5789 4.15039 31.4562 6.48631 31.0006 9.88033C30.7069 12.0702 31.0102 14.448 31.9347 17.2019C32.6439 19.3187 35.9566 26.0534 36.091 25.6539C36.1325 25.5281 35.9349 24.3163 35.6514 22.9661Z" fill="#345D5D"/>
</g>
<defs>
<clipPath id="clip0_9_2">
<rect width="85" height="161" fill="white" transform="translate(0.181061 0.723633)"/>
</clipPath>
</defs>
</svg>
